<?xml version="1.0" standalone="no"?>
<!DOCTYPE svg PUBLIC "-//W3C//DTD SVG 20010904//EN"
 "http://www.w3.org/TR/2001/REC-SVG-20010904/DTD/svg10.dtd">
<svg version="1.0" xmlns="http://www.w3.org/2000/svg"
 width="192.000000pt" height="192.000000pt" viewBox="0 0 192.000000 192.000000"
 preserveAspectRatio="xMidYMid meet">

<g transform="translate(0.000000,192.000000) scale(0.100000,-0.100000)"
fill="#FE4F00" stroke="none">
<path d="M0 965 l0 -955 960 0 960 0 0 955 0 955 -960 0 -960 0 0 -955z m627
302 c17 -9 42 -31 55 -49 22 -32 23 -40 26 -281 l3 -248 -48 3 c-46 3 -48 4
-53 38 -3 22 -8 31 -13 23 -15 -24 -94 -63 -146 -73 -130 -24 -224 45 -223
165 1 122 84 185 290 217 l72 12 0 32 c0 17 -9 42 -19 55 -17 22 -27 24 -98
23 -54 -1 -95 -7 -132 -22 -30 -12 -57 -20 -59 -17 -2 2 -7 24 -9 49 -5 37 -2
46 15 55 77 41 275 51 339 18z m548 -14 c4 -21 9 -45 11 -53 3 -11 -13 -20
-57 -33 -47 -14 -72 -29 -110 -67 l-49 -49 0 -181 0 -180 -60 0 -60 0 0 295 0
295 49 0 49 0 7 -56 7 -56 29 35 c31 38 119 87 156 87 18 0 23 -7 28 -37z
m440 14 c37 -13 40 -17 38 -48 -2 -19 -5 -44 -8 -56 l-5 -22 -47 21 c-26 12
-78 23 -115 26 -61 4 -68 3 -92 -21 -14 -14 -26 -33 -26 -42 0 -27 37 -54 97
-70 138 -38 194 -68 219 -117 22 -42 22 -124 0 -166 -49 -96 -222 -125 -384
-64 -44 17 -47 20 -45 53 2 19 5 44 8 56 l5 22 66 -31 c51 -24 80 -31 133 -32
85 -1 121 19 121 67 0 53 -18 67 -132 98 -128 36 -181 75 -194 145 -15 81 31
160 111 190 49 18 191 13 250 -9z"/>
<path d="M504 970 c-52 -11 -113 -36 -136 -57 -26 -23 -34 -78 -14 -107 30
-47 117 -42 197 11 39 26 39 26 39 94 0 77 2 76 -86 59z"/>
</g>
</svg>
