<?xml version="1.0" standalone="no"?>
<!DOCTYPE svg PUBLIC "-//W3C//DTD SVG 20010904//EN"
 "http://www.w3.org/TR/2001/REC-SVG-20010904/DTD/svg10.dtd">
<svg version="1.0" xmlns="http://www.w3.org/2000/svg"
 width="192.000000pt" height="192.000000pt" viewBox="0 0 192.000000 192.000000"
 preserveAspectRatio="xMidYMid meet">

<g transform="translate(0.000000,192.000000) scale(0.100000,-0.100000)"
fill="#000000" stroke="none">
<path d="M0 960 l0 -960 960 0 960 0 0 960 0 960 -960 0 -960 0 0 -960z m1177
810 c403 -111 657 -484 613 -899 -12 -114 -26 -162 -79 -275 -55 -119 -145
-228 -258 -315 -45 -34 -221 -121 -245 -121 -31 0 -36 27 -40 185 -3 138 -6
166 -24 202 l-21 41 71 17 c86 21 178 68 213 109 61 73 101 218 89 325 -4 32
-20 84 -39 121 -28 57 -32 75 -32 145 -1 44 -4 95 -9 113 -7 29 -11 32 -47 32
-37 0 -141 -43 -176 -72 -10 -8 -29 -8 -71 2 -73 16 -251 16 -324 0 -52 -12
-58 -11 -85 7 -47 34 -123 63 -163 63 -35 0 -39 -3 -46 -32 -4 -18 -8 -69 -8
-113 -1 -70 -5 -88 -34 -146 -20 -39 -35 -88 -39 -121 -11 -107 29 -252 90
-324 35 -42 127 -88 214 -109 l72 -17 -20 -37 c-10 -19 -19 -41 -19 -48 0 -41
-125 -59 -182 -25 -16 9 -48 41 -70 71 -47 62 -114 99 -148 81 -18 -10 -18
-40 0 -40 16 0 77 -73 105 -127 20 -38 45 -68 73 -88 40 -28 50 -30 128 -30
l84 0 0 -82 c0 -73 -2 -84 -21 -93 -16 -9 -32 -7 -77 11 -352 139 -562 490
-522 872 39 375 333 683 705 737 89 13 260 3 342 -20z"/>
</g>
</svg>
